<svg width="20" height="21" viewBox="0 0 20 21" fill="none" xmlns="http://www.w3.org/2000/svg">
                  <g clip-path="url(#clip0_835_1791)">
                    <path d="M10.0002 15.4768L13.536 11.9418C14.2352 11.2425 14.7113 10.3515 14.9042 9.38166C15.097 8.41178 14.9979 7.40649 14.6195 6.49291C14.241 5.57933 13.6002 4.79849 12.7779 4.24912C11.9557 3.69975 10.989 3.40652 10.0002 3.40652C9.0113 3.40652 8.04463 3.69975 7.2224 4.24912C6.40018 4.79849 5.75931 5.57933 5.38085 6.49291C5.00239 7.40649 4.90332 8.41178 5.09618 9.38166C5.28903 10.3515 5.76515 11.2425 6.46433 11.9418L10.0002 15.4768ZM14.7143 13.1201L10.0002 17.8343L5.286 13.1201C4.35368 12.1877 3.71878 10.9998 3.46157 9.70664C3.20437 8.41345 3.33641 7.07302 3.841 5.85487C4.3456 4.63671 5.20008 3.59554 6.2964 2.86301C7.39272 2.13049 8.68164 1.7395 10.0002 1.7395C11.3187 1.7395 12.6076 2.13049 13.7039 2.86301C14.8003 3.59554 15.6547 4.63671 16.1593 5.85487C16.6639 7.07302 16.796 8.41345 16.5388 9.70664C16.2816 10.9998 15.6466 12.1877 14.7143 13.1201ZM4.16683 18.4059H15.8335V20.0726H4.16683V18.4059Z" fill="#818181"/>
                  </g>
                  <defs>
                    <clipPath id="clip0_835_1791">
                      <rect width="20" height="20" fill="white" transform="translate(0 0.0725098)"/>
                    </clipPath>
                  </defs>
                </svg>