<svg width="280" height="85" viewBox="0 0 280 85" fill="none" xmlns="http://www.w3.org/2000/svg">
<path d="M278.022 74.4553C278.022 75.5122 277.817 76.5587 277.418 77.5351C277.019 78.5114 276.434 79.3984 275.697 80.1453C274.959 80.8922 274.084 81.4845 273.121 81.8882C272.158 82.2918 271.126 82.4991 270.084 82.498H10.2914C8.18576 82.5002 6.16547 81.6542 4.67481 80.1459C3.18416 78.6377 2.34521 76.5908 2.34247 74.4553V10.318C2.34521 8.1816 3.18383 6.13359 4.67418 4.6237C6.16454 3.11381 8.18481 2.26545 10.2914 2.26489H270.082C271.124 2.26489 272.157 2.47321 273.12 2.87794C274.084 3.28267 274.959 3.8759 275.696 4.62373C276.433 5.37156 277.018 6.25934 277.417 7.23638C277.815 8.21342 278.021 9.26057 278.02 10.318L278.022 74.4553Z" fill="white"/>
<path d="M270.084 84.369H10.2917C7.69784 84.3684 5.2101 83.3243 3.37439 81.4658C1.53867 79.6072 0.504935 77.086 0.5 74.4554L0.5 10.3201C0.503837 7.68819 1.53689 5.16526 3.37255 3.30478C5.2082 1.44431 7.69655 0.398218 10.2917 0.395996L270.082 0.395996C272.677 0.399326 275.165 1.44577 277 3.30601C278.836 5.16624 279.869 7.68854 279.874 10.3201V74.4554C279.878 79.9235 275.478 84.369 270.084 84.369Z" fill="#A6A6A6"/>
<path d="M278.022 74.4553C278.022 75.5122 277.817 76.5587 277.418 77.5351C277.019 78.5114 276.434 79.3984 275.697 80.1453C274.959 80.8922 274.084 81.4845 273.121 81.8882C272.158 82.2918 271.126 82.4991 270.084 82.498H10.2914C8.18576 82.5002 6.16547 81.6542 4.67481 80.1459C3.18416 78.6377 2.34521 76.5908 2.34247 74.4553V10.318C2.34521 8.1816 3.18383 6.13359 4.67418 4.6237C6.16454 3.11381 8.18481 2.26545 10.2914 2.26489H270.082C271.124 2.26489 272.157 2.47321 273.12 2.87794C274.084 3.28267 274.959 3.8759 275.696 4.62373C276.433 5.37156 277.018 6.25934 277.417 7.23638C277.815 8.21342 278.021 9.26057 278.02 10.318L278.022 74.4553Z" fill="black"/>
<path d="M62.8823 41.9406C62.8222 35.1726 68.3465 31.8799 68.5991 31.7266C65.4705 27.1005 60.6212 26.4685 58.9171 26.4181C54.8443 25.9834 50.8936 28.8897 48.8189 28.8897C46.7028 28.8897 43.5079 26.4601 40.0646 26.5315C35.6335 26.6008 31.4883 29.2025 29.2148 33.2428C24.5229 41.4807 28.0221 53.5866 32.5173 60.2454C34.766 63.5087 37.3935 67.1478 40.8327 67.0197C44.1974 66.8811 45.4543 64.8463 49.5146 64.8463C53.5378 64.8463 54.718 67.0197 58.2255 66.9378C61.8366 66.8811 64.1101 63.6619 66.2801 60.3714C68.8786 56.6357 69.9222 52.9524 69.9636 52.7635C69.8808 52.7341 62.9527 50.0504 62.8823 41.9406ZM56.2564 22.0377C58.0661 19.7425 59.3043 16.6199 58.9606 13.4512C56.3413 13.5688 53.0657 15.2886 51.1794 17.5334C49.5105 19.5115 48.0197 22.7537 48.4048 25.8028C51.3471 26.0254 54.3681 24.2972 56.2564 22.0377Z" fill="white"/>
<path d="M270.084 0.395996H130.932L185.435 84.369H270.084C272.679 84.3668 275.167 83.3213 277.002 81.4617C278.838 79.6021 279.871 77.0803 279.876 74.4491V10.3201C279.872 7.68836 278.839 5.16575 277.003 3.30539C275.168 1.44504 272.68 0.398772 270.084 0.395996Z" fill="url(#paint0_linear_2953_16718)"/>
<path d="M111.618 66.5513H106.916L104.34 58.3428H95.3866L92.9329 66.5513H88.3549L97.2273 38.6058H102.706L111.618 66.5513ZM103.563 54.899L101.234 47.6018C100.987 46.8563 100.524 45.1008 99.8445 42.3373H99.7617C99.4884 43.5259 99.0515 45.2814 98.4531 47.6018L96.163 54.899H103.563ZM134.39 56.2282C134.39 59.6552 133.473 62.3641 131.636 64.3527C129.992 66.1229 127.948 67.007 125.511 67.007C122.88 67.007 120.987 66.0557 119.838 64.149V74.722H115.423V53.0237C115.423 50.8713 115.368 48.6644 115.26 46.4007H119.142L119.389 49.5946H119.471C120.944 47.1881 123.178 45.9849 126.176 45.9849C128.52 45.9849 130.477 46.9235 132.042 48.8029C133.605 50.6866 134.39 53.1602 134.39 56.2282ZM129.893 56.392C129.893 54.4307 129.458 52.8138 128.584 51.5391C127.63 50.2141 126.348 49.5505 124.741 49.5505C123.652 49.5505 122.662 49.9201 121.778 50.6488C120.892 51.3837 120.312 52.3434 120.041 53.5319C119.92 53.9764 119.851 54.4339 119.836 54.8948V58.2567C119.836 59.7203 120.279 60.9572 121.165 61.9693C122.051 62.9773 123.203 63.4834 124.619 63.4834C126.282 63.4834 127.576 62.8303 128.501 61.5347C129.429 60.2348 129.893 58.5213 129.893 56.392ZM157.243 56.2282C157.243 59.6552 156.326 62.3641 154.489 64.3527C152.843 66.1229 150.801 67.007 148.362 67.007C145.73 67.007 143.838 66.0557 142.689 64.149V74.722H138.274V53.0237C138.274 50.8713 138.218 48.6644 138.111 46.4007H141.993L142.239 49.5946H142.322C143.792 47.1881 146.027 45.9849 149.027 45.9849C151.369 45.9849 153.325 46.9235 154.895 48.8029C156.456 50.6866 157.243 53.1602 157.243 56.2282ZM152.743 56.392C152.743 54.4307 152.307 52.8138 151.433 51.5391C150.478 50.2141 149.201 49.5505 147.594 49.5505C146.505 49.5505 145.515 49.9201 144.627 50.6488C143.741 51.3837 143.163 52.3434 142.892 53.5319C142.757 54.0863 142.685 54.5378 142.685 54.8948V58.2567C142.685 59.7203 143.13 60.9572 144.012 61.9693C144.898 62.9752 146.049 63.4834 147.47 63.4834C149.134 63.4834 150.429 62.8303 151.352 61.5347C152.28 60.2348 152.743 58.5213 152.743 56.392ZM182.794 58.7124C182.794 61.0916 181.974 63.0256 180.344 64.5186C178.551 66.1481 176.048 66.965 172.838 66.965C169.873 66.965 167.496 66.3854 165.703 65.2242L166.724 61.4927C168.66 62.656 170.786 63.2356 173.101 63.2356C174.766 63.2356 176.06 62.8534 176.984 62.0953C177.909 61.3352 178.377 60.3188 178.377 59.0505C178.377 57.9144 177.99 56.9632 177.23 56.1883C176.466 55.4155 175.203 54.6953 173.428 54.0338C168.604 52.209 166.19 49.54 166.19 46.029C166.19 43.7359 167.043 41.8586 168.745 40.3907C170.447 38.925 172.704 38.1921 175.511 38.1921C178.019 38.1921 180.108 38.6352 181.767 39.5193L180.659 43.1689C179.098 42.3121 177.336 41.8838 175.364 41.8838C173.807 41.8838 172.586 42.2722 171.712 43.045C170.977 43.7359 170.604 44.5779 170.604 45.5775C170.604 46.6799 171.029 47.5955 171.873 48.3137C172.606 48.9751 173.944 49.6954 175.878 50.4682C178.251 51.4383 179.994 52.5681 181.11 53.8658C182.235 55.1635 182.794 56.7826 182.794 58.7124ZM197.426 49.7605H192.561V59.5439C192.561 62.0323 193.418 63.2734 195.136 63.2734C195.925 63.2734 196.58 63.2062 197.097 63.0655L197.219 66.4652C196.35 66.7949 195.205 66.9608 193.786 66.9608C192.043 66.9608 190.68 66.4211 189.697 65.3418C188.718 64.2624 188.225 62.4544 188.225 59.9093V49.7521H185.326V46.3923H188.225V42.7027L192.561 41.3756V46.3923H197.426V49.7605ZM219.337 56.3101C219.337 59.4075 218.463 61.9504 216.72 63.939C214.896 65.9864 212.469 67.007 209.444 67.007C206.524 67.007 204.203 66.0263 202.472 64.0671C200.741 62.1037 199.876 59.63 199.876 56.6461C199.876 53.5235 200.77 50.9658 202.553 48.9772C204.34 46.9865 206.746 45.9912 209.771 45.9912C212.687 45.9912 215.028 46.9739 216.801 48.9352C218.494 50.8377 219.337 53.2946 219.337 56.3101ZM214.761 56.413C214.761 54.5672 214.368 52.9839 213.579 51.6588C212.653 50.0587 211.328 49.2586 209.612 49.2586C207.843 49.2586 206.487 50.0587 205.564 51.6588C204.773 52.9839 204.379 54.5945 204.379 56.497C204.379 58.3449 204.773 59.9324 205.564 61.2533C206.518 62.8534 207.85 63.6535 209.574 63.6535C211.262 63.6535 212.585 62.8366 213.542 61.2134C214.353 59.8568 214.761 58.263 214.761 56.413ZM233.692 50.338C233.233 50.2539 232.768 50.2124 232.301 50.2141C230.748 50.2141 229.547 50.8062 228.702 51.999C227.969 53.0489 227.601 54.3761 227.601 55.9783V66.5513H223.186V52.7466C223.19 50.6313 223.148 48.5161 223.058 46.4028H226.903L227.065 50.2582H227.187C227.655 48.9331 228.388 47.8643 229.394 47.0642C230.315 46.3651 231.434 45.9865 232.585 45.9849C232.993 45.9849 233.361 46.0143 233.688 46.0668L233.692 50.338ZM253.435 55.5226C253.447 56.2032 253.392 56.8833 253.274 57.5532H240.03C240.08 59.5439 240.722 61.0685 241.952 62.1184C243.068 63.055 244.511 63.5254 246.284 63.5254C248.244 63.5254 250.033 63.2104 251.642 62.5741L252.334 65.6799C250.454 66.5114 248.234 66.9251 245.673 66.9251C242.592 66.9251 240.173 66.0053 238.413 64.17C236.658 62.3326 235.778 59.8631 235.778 56.77C235.778 53.7335 236.595 51.2031 238.233 49.1851C239.948 47.0306 242.265 45.9534 245.18 45.9534C248.044 45.9534 250.211 47.0306 251.684 49.1851C252.849 50.8923 253.435 53.0091 253.435 55.5226ZM249.226 54.3614C249.257 53.0321 248.967 51.8877 248.369 50.9196C247.605 49.6723 246.429 49.0507 244.853 49.0507C243.41 49.0507 242.234 49.6576 241.339 50.8755C240.604 51.8436 240.167 53.007 240.033 54.3572L249.226 54.3614Z" fill="white"/>
<path d="M94.1124 28.7259C92.8846 28.7259 91.8224 28.665 90.9382 28.5621V15.0513C92.1748 14.8576 93.4244 14.7621 94.6756 14.7657C99.7382 14.7657 102.07 17.2919 102.07 21.4098C102.07 26.1598 99.3158 28.7259 94.1124 28.7259ZM94.8537 16.4981C94.1704 16.4981 93.5886 16.5401 93.1061 16.6409V26.9115C93.367 26.9535 93.8681 26.9724 94.5721 26.9724C97.8891 26.9724 99.7775 25.0573 99.7775 21.4707C99.7775 18.2725 98.0693 16.4981 94.8537 16.4981ZM109.335 28.8288C106.482 28.8288 104.633 26.668 104.633 23.7344C104.633 20.6769 106.521 18.4972 109.497 18.4972C112.309 18.4972 114.199 20.5551 114.199 23.5727C114.199 26.668 112.251 28.8288 109.335 28.8288ZM109.418 20.1058C107.851 20.1058 106.846 21.5925 106.846 23.6714C106.846 25.7104 107.871 27.1971 109.397 27.1971C110.923 27.1971 111.948 25.6075 111.948 23.6294C111.948 21.6135 110.944 20.1058 109.418 20.1058ZM130.47 18.7009L127.415 28.6041H125.426L124.161 24.3035C123.846 23.2515 123.584 22.1841 123.376 21.1053H123.334C123.175 22.1847 122.873 23.2661 122.552 24.3035L121.206 28.6041H119.195L116.321 18.7009H118.551L119.657 23.4089C119.918 24.5303 120.137 25.5886 120.32 26.5882H120.361C120.52 25.7545 120.781 24.7129 121.164 23.4299L122.552 18.703H124.32L125.647 23.3291C125.968 24.4505 126.229 25.5508 126.432 26.5903H126.49C126.631 25.5718 126.852 24.4904 127.153 23.3291L128.339 18.703L130.47 18.7009ZM141.713 28.6041H139.543V22.9175C139.543 21.1662 138.88 20.2885 137.574 20.2885C136.288 20.2885 135.404 21.4098 135.404 22.7138V28.6041H133.234V21.5316C133.234 20.6559 133.213 19.7173 133.153 18.6988H135.062L135.164 20.2276H135.224C135.808 19.1692 136.992 18.4972 138.319 18.4972C140.369 18.4972 141.715 20.0869 141.715 22.6739L141.713 28.6041ZM147.697 28.6041H145.525V14.1567H147.697V28.6041ZM155.608 28.8288C152.757 28.8288 150.906 26.668 150.906 23.7344C150.906 20.6769 152.794 18.4972 155.768 18.4972C158.582 18.4972 160.47 20.5551 160.47 23.5727C160.472 26.668 158.522 28.8288 155.608 28.8288ZM155.689 20.1058C154.122 20.1058 153.117 21.5925 153.117 23.6714C153.117 25.7104 154.144 27.1971 155.666 27.1971C157.194 27.1971 158.217 25.6075 158.217 23.6294C158.219 21.6135 157.217 20.1058 155.689 20.1058ZM169.026 28.6041L168.868 27.4638H168.81C168.148 28.3815 167.181 28.8288 165.955 28.8288C164.205 28.8288 162.963 27.5856 162.963 25.9141C162.963 23.4698 165.052 22.2057 168.67 22.2057V22.023C168.67 20.7189 167.988 20.0659 166.642 20.0659C165.68 20.0659 164.835 20.3116 164.092 20.8008L163.65 19.354C164.553 18.7828 165.68 18.4972 167.003 18.4972C169.554 18.4972 170.842 19.8622 170.842 22.5941V26.2417C170.842 27.2412 170.885 28.0161 170.982 28.6062L169.026 28.6041ZM168.728 23.6714C166.317 23.6714 165.108 24.2636 165.108 25.6684C165.108 26.7079 165.731 27.216 166.597 27.216C167.701 27.216 168.728 26.3614 168.728 25.2001V23.6714ZM181.379 28.6041L181.277 27.0144H181.217C180.594 28.2156 179.546 28.8288 178.082 28.8288C175.728 28.8288 173.985 26.7289 173.985 23.7743C173.985 20.6769 175.792 18.4951 178.26 18.4951C179.567 18.4951 180.492 18.9424 181.014 19.8412H181.058V14.1567H183.23V25.9351C183.23 26.8926 183.253 27.7893 183.311 28.6041H181.379ZM181.058 22.7768C181.058 21.3909 180.153 20.2087 178.772 20.2087C177.163 20.2087 176.179 21.6555 176.179 23.6924C176.179 25.6894 177.2 27.0564 178.728 27.0564C180.093 27.0564 181.058 25.8532 181.058 24.4274V22.7768ZM197.001 28.8288C194.15 28.8288 192.301 26.668 192.301 23.7344C192.301 20.6769 194.189 18.4972 197.163 18.4972C199.977 18.4972 201.865 20.5551 201.865 23.5727C201.867 26.668 199.919 28.8288 197.001 28.8288ZM197.082 20.1058C195.517 20.1058 194.512 21.5925 194.512 23.6714C194.512 25.7104 195.537 27.1971 197.061 27.1971C198.589 27.1971 199.612 25.6075 199.612 23.6294C199.616 21.6135 198.612 20.1058 197.082 20.1058ZM213.535 28.6041H211.363V22.9175C211.363 21.1662 210.7 20.2885 209.394 20.2885C208.108 20.2885 207.226 21.4098 207.226 22.7138V28.6041H205.054V21.5316C205.054 20.6559 205.033 19.7173 204.973 18.6988H206.882L206.983 20.2276H207.043C207.625 19.1692 208.812 18.4951 210.137 18.4951C212.187 18.4951 213.535 20.0848 213.535 22.6718V28.6041ZM228.134 20.3515H225.747V25.1602C225.747 26.3845 226.165 26.9955 227.01 26.9955C227.393 26.9955 227.714 26.9535 227.973 26.8926L228.033 28.5642C227.612 28.728 227.049 28.8099 226.349 28.8099C224.639 28.8099 223.616 27.8523 223.616 25.345V20.3515H222.192V18.7009H223.616V16.8866L225.747 16.2335V18.6988H228.134V20.3515ZM239.622 28.6041H237.454V22.9595C237.454 21.1872 236.793 20.2906 235.485 20.2906C234.36 20.2906 233.313 21.0654 233.313 22.634V28.6041H231.145V14.1567H233.313V20.1058H233.356C234.04 19.0264 235.029 18.4951 236.292 18.4951C238.359 18.4951 239.622 20.1247 239.622 22.7138V28.6041ZM251.391 24.1817H244.879C244.92 26.0569 246.144 27.1152 247.956 27.1152C248.919 27.1152 249.805 26.9514 250.588 26.647L250.925 28.1757C250.002 28.5831 248.915 28.7868 247.649 28.7868C244.595 28.7868 242.788 26.8296 242.788 23.7953C242.788 20.7588 244.639 18.4762 247.405 18.4762C249.9 18.4762 251.465 20.3515 251.465 23.1842C251.479 23.5185 251.454 23.8533 251.391 24.1817ZM249.401 22.613C249.401 21.0843 248.641 20.005 247.254 20.005C246.007 20.005 245.022 21.1053 244.881 22.613H249.401Z" fill="white"/>
<defs>
<linearGradient id="paint0_linear_2953_16718" x1="205.402" y1="84.5919" x2="205.402" y2="-218.255" gradientUnits="userSpaceOnUse">
<stop stop-color="#1A1A1A" stop-opacity="0.1"/>
<stop offset="0.123" stop-color="#212121" stop-opacity="0.151"/>
<stop offset="0.308" stop-color="#353535" stop-opacity="0.227"/>
<stop offset="0.532" stop-color="#575757" stop-opacity="0.318"/>
<stop offset="0.783" stop-color="#858585" stop-opacity="0.421"/>
<stop offset="1" stop-color="#B3B3B3" stop-opacity="0.51"/>
</linearGradient>
</defs>
</svg>