<svg width="17" height="17" viewBox="0 0 17 17" fill="none" xmlns="http://www.w3.org/2000/svg">
            <g clip-path="url(#clip0_26_297)">
              <path d="M8.31689 1.20898C8.75463 1.20898 9.18809 1.2952 9.59251 1.46272C9.99692 1.63023 10.3644 1.87577 10.6739 2.1853C10.9834 2.49482 11.229 2.86229 11.3965 3.26671C11.564 3.67112 11.6502 4.10458 11.6502 4.54232V5.87565H13.6502C13.827 5.87565 13.9966 5.94589 14.1216 6.07091C14.2467 6.19594 14.3169 6.36551 14.3169 6.54232V14.5423C14.3169 14.7191 14.2467 14.8887 14.1216 15.0137C13.9966 15.1387 13.827 15.209 13.6502 15.209H2.98356C2.80675 15.209 2.63718 15.1387 2.51216 15.0137C2.38713 14.8887 2.31689 14.7191 2.31689 14.5423V6.54232C2.31689 6.36551 2.38713 6.19594 2.51216 6.07091C2.63718 5.94589 2.80675 5.87565 2.98356 5.87565H4.98356V4.54232C4.98356 3.65826 5.33475 2.81042 5.95987 2.1853C6.58499 1.56017 7.43284 1.20898 8.31689 1.20898ZM11.6502 7.87565H10.3169V8.54232C10.3171 8.71224 10.3821 8.87567 10.4988 8.99923C10.6154 9.12279 10.7749 9.19714 10.9445 9.2071C11.1141 9.21706 11.2811 9.16187 11.4114 9.05281C11.5418 8.94375 11.6255 8.78905 11.6456 8.62032L11.6502 8.54232V7.87565ZM6.31689 7.87565H4.98356V8.54232C4.98375 8.71224 5.04881 8.87567 5.16546 8.99923C5.28211 9.12279 5.44153 9.19714 5.61116 9.2071C5.78079 9.21706 5.94781 9.16187 6.07812 9.05281C6.20842 8.94375 6.29216 8.78905 6.31223 8.62032L6.31689 8.54232V7.87565ZM8.31689 2.54232C7.80675 2.54229 7.31588 2.7372 6.94472 3.08717C6.57356 3.43715 6.35016 3.91572 6.32023 4.42498L6.31689 4.54232V5.87565H10.3169V4.54232C10.3169 4.03218 10.122 3.54131 9.77204 3.17014C9.42207 2.79898 8.94349 2.57558 8.43423 2.54565L8.31689 2.54232Z" fill="white"/>
            </g>
            <defs>
              <clipPath id="clip0_26_297">
                <rect width="16" height="16" fill="white" transform="translate(0.316895 0.542236)"/>
              </clipPath>
            </defs>
          </svg>