<svg width="15" height="14" viewBox="0 0 15 14" fill="none" xmlns="http://www.w3.org/2000/svg">
          <path d="M13.353 7.82798V12.3333H14.0197V13.6666H0.68632V12.3333H1.35299V7.82798C0.942568 7.55404 0.606129 7.18301 0.373533 6.74782C0.140938 6.31264 0.0193815 5.82676 0.0196538 5.33331C0.0196538 4.78198 0.168987 4.25065 0.441654 3.79798L2.24965 0.666646C2.30816 0.565303 2.39232 0.481146 2.49366 0.422634C2.59501 0.364122 2.70997 0.333316 2.82699 0.333313H11.8797C11.9967 0.333316 12.1116 0.364122 12.213 0.422634C12.3143 0.481146 12.3985 0.565303 12.457 0.666646L14.2583 3.78798C14.656 4.44856 14.7839 5.237 14.6153 5.98941C14.4466 6.74181 13.9946 7.40029 13.353 7.82798ZM12.0197 8.31465C11.5613 8.36607 11.0972 8.31101 10.6636 8.15375C10.23 7.99649 9.83851 7.74128 9.51965 7.40798C9.23979 7.70069 8.90352 7.93366 8.53113 8.09281C8.15874 8.25197 7.75796 8.33401 7.35299 8.33398C6.94811 8.33418 6.54739 8.25235 6.175 8.09343C5.80262 7.9345 5.46629 7.70179 5.18632 7.40931C4.8674 7.74249 4.4759 7.99758 4.04229 8.15472C3.60867 8.31186 3.14465 8.36682 2.68632 8.31531V12.3333H12.0197V8.31531V8.31465ZM3.21232 1.66665L1.59032 4.47531C1.43271 4.86474 1.42797 5.29933 1.57707 5.6921C1.72617 6.08487 2.01811 6.40684 2.39444 6.59358C2.77078 6.78031 3.20375 6.81803 3.60671 6.69919C4.00967 6.58035 4.35288 6.31371 4.56765 5.95265C4.79099 5.39465 5.58099 5.39465 5.80499 5.95265C5.92852 6.26226 6.14205 6.52771 6.418 6.71472C6.69395 6.90172 7.01964 7.00168 7.35299 7.00168C7.68633 7.00168 8.01202 6.90172 8.28797 6.71472C8.56392 6.52771 8.77746 6.26226 8.90099 5.95265C9.12432 5.39465 9.91432 5.39465 10.1383 5.95265C10.2248 6.16561 10.3545 6.35838 10.5191 6.51883C10.6837 6.67928 10.8797 6.80395 11.0948 6.88499C11.3099 6.96604 11.5395 7.00171 11.769 6.98977C11.9986 6.97783 12.2232 6.91853 12.4287 6.8156C12.6343 6.71267 12.8163 6.56833 12.9633 6.39167C13.1104 6.215 13.2193 6.00982 13.2833 5.78903C13.3473 5.56823 13.3648 5.3366 13.335 5.10868C13.3051 4.88076 13.2284 4.66149 13.1097 4.46465L11.493 1.66665H3.21299H3.21232Z" fill="#03053D"/>
        </svg>