<svg width="16" height="16" viewBox="0 0 16 16" fill="none" xmlns="http://www.w3.org/2000/svg">
          <path d="M11.3333 10.6666H12.6667V2.66665H6V3.99998H11.3333V10.6666ZM11.3333 12V14C11.3333 14.368 11.0333 14.6666 10.662 14.6666H2.67133C2.58342 14.6672 2.49626 14.6503 2.41488 14.6171C2.3335 14.5838 2.25949 14.5348 2.19711 14.4728C2.13472 14.4109 2.0852 14.3372 2.05137 14.2561C2.01754 14.1749 2.00009 14.0879 2 14L2.002 4.66665C2.002 4.29865 2.302 3.99998 2.67333 3.99998H4.66667V1.99998C4.66667 1.82317 4.7369 1.6536 4.86193 1.52858C4.98695 1.40355 5.15652 1.33331 5.33333 1.33331H13.3333C13.5101 1.33331 13.6797 1.40355 13.8047 1.52858C13.9298 1.6536 14 1.82317 14 1.99998V11.3333C14 11.5101 13.9298 11.6797 13.8047 11.8047C13.6797 11.9297 13.5101 12 13.3333 12H11.3333ZM3.33533 5.33331L3.33333 13.3333H10V5.33331H3.33533ZM4.66667 10.6666H7.66667C7.75507 10.6666 7.83986 10.6315 7.90237 10.569C7.96488 10.5065 8 10.4217 8 10.3333C8 10.2449 7.96488 10.1601 7.90237 10.0976C7.83986 10.0351 7.75507 9.99998 7.66667 9.99998H5.66667C5.22464 9.99998 4.80072 9.82439 4.48816 9.51182C4.17559 9.19926 4 8.77534 4 8.33331C4 7.89129 4.17559 7.46736 4.48816 7.1548C4.80072 6.84224 5.22464 6.66665 5.66667 6.66665H6V5.99998H7.33333V6.66665H8.66667V7.99998H5.66667C5.57826 7.99998 5.49348 8.0351 5.43096 8.09761C5.36845 8.16012 5.33333 8.24491 5.33333 8.33331C5.33333 8.42172 5.36845 8.5065 5.43096 8.56902C5.49348 8.63153 5.57826 8.66665 5.66667 8.66665H7.66667C8.10869 8.66665 8.53262 8.84224 8.84518 9.1548C9.15774 9.46736 9.33333 9.89129 9.33333 10.3333C9.33333 10.7753 9.15774 11.1993 8.84518 11.5118C8.53262 11.8244 8.10869 12 7.66667 12H7.33333V12.6666H6V12H4.66667V10.6666Z" fill="black"/>
        </svg>