<svg width="20" height="21" viewBox="0 0 20 21" fill="none" xmlns="http://www.w3.org/2000/svg">
                  <g clip-path="url(#clip0_835_2015)">
                    <path d="M14.621 15.9058L18.3335 18.8225V3.40584C18.3335 3.18483 18.2457 2.97287 18.0894 2.81659C17.9331 2.66031 17.7212 2.57251 17.5002 2.57251H2.50016C2.27915 2.57251 2.06719 2.66031 1.91091 2.81659C1.75463 2.97287 1.66683 3.18483 1.66683 3.40584V15.0725C1.66683 15.2935 1.75463 15.5055 1.91091 15.6618C2.06719 15.818 2.27915 15.9058 2.50016 15.9058H14.621ZM15.1977 14.2392H3.3335V4.23918H16.6668V15.3933L15.1977 14.2392ZM10.8335 8.40584H9.16683V10.0725H10.8335V8.40584ZM14.1668 8.40584H12.5002V10.0725H14.1668V8.40584ZM7.50016 8.40584H5.8335V10.0725H7.50016V8.40584Z" fill="#818181"/>
                  </g>
                  <defs>
                    <clipPath id="clip0_835_2015">
                      <rect width="20" height="20" fill="white" transform="matrix(-1 0 0 1 20 0.0725098)"/>
                    </clipPath>
                  </defs>
                </svg>