<svg width="17" height="16" viewBox="0 0 17 16" fill="none" xmlns="http://www.w3.org/2000/svg">
          <path d="M8.814 14.6666C5.13201 14.6666 2.14734 11.682 2.14734 7.99998C2.14734 4.31798 5.13201 1.33331 8.814 1.33331C12.496 1.33331 15.4807 4.31798 15.4807 7.99998C15.4807 11.682 12.496 14.6666 8.814 14.6666ZM8.814 13.3333C10.2285 13.3333 11.585 12.7714 12.5852 11.7712C13.5854 10.771 14.1473 9.41447 14.1473 7.99998C14.1473 6.58549 13.5854 5.22894 12.5852 4.22874C11.585 3.22855 10.2285 2.66665 8.814 2.66665C7.39952 2.66665 6.04296 3.22855 5.04277 4.22874C4.04258 5.22894 3.48067 6.58549 3.48067 7.99998C3.48067 9.41447 4.04258 10.771 5.04277 11.7712C6.04296 12.7714 7.39952 13.3333 8.814 13.3333ZM9.48067 7.99998H12.1473V9.33331H8.14734V4.66665H9.48067V7.99998Z" fill="black"/>
        </svg>