<svg width="20" height="20" viewBox="0 0 20 20" fill="none" xmlns="http://www.w3.org/2000/svg">
          <path d="M7.02734 7.20117C5.39648 7.92383 4.09766 9.2207 3.37305 10.8516C3.26367 11.0977 3.375 11.3848 3.62109 11.4941C3.68555 11.5234 3.75195 11.5371 3.81836 11.5371C4.00586 11.5371 4.18359 11.4297 4.26367 11.248C4.89062 9.83789 6.01172 8.7168 7.42188 8.0918C7.66797 7.98242 7.7793 7.69531 7.66992 7.44922C7.5625 7.20312 7.27344 7.0918 7.02734 7.20117ZM11.2188 5.08203C11.3594 4.85156 11.4453 4.58398 11.4453 4.29492C11.4453 3.45898 10.7676 2.7832 9.93359 2.7832C9.09766 2.7832 8.42188 3.46094 8.42188 4.29492C8.42188 4.58398 8.50781 4.85352 8.64844 5.08203C4.41602 5.70508 1.1582 9.35937 1.1582 13.7617V14.8184C1.1582 15.0879 1.37695 15.3066 1.64648 15.3066H18.2227C18.4922 15.3066 18.7109 15.0879 18.7109 14.8184V13.7617C18.709 9.35937 15.4492 5.70703 11.2188 5.08203ZM17.7344 14.3301H2.13281V13.7617C2.13281 9.46094 5.63281 5.96289 9.93359 5.96289C14.2344 5.96289 17.7344 9.46094 17.7344 13.7617V14.3301ZM18.2207 16.2871H1.64453C1.375 16.2871 1.15625 16.5059 1.15625 16.7754C1.15625 17.0449 1.375 17.2637 1.64453 17.2637H18.2207C18.4902 17.2637 18.709 17.0449 18.709 16.7754C18.709 16.5059 18.4902 16.2871 18.2207 16.2871Z" fill="black"/>
        </svg>