<svg width="281" height="86" viewBox="0 0 281 86" fill="none" xmlns="http://www.w3.org/2000/svg">
<g clip-path="url(#clip0_2953_16728)">
<path d="M270.13 85.3566H10.8704C5.06296 85.3566 0.5 80.7393 0.5 74.8628V11.8998C0.5 6.02329 5.06296 1.40601 10.8704 1.40601H270.13C275.937 1.40601 280.5 6.02329 280.5 11.8998V74.8628C280.5 80.7393 275.937 85.3566 270.13 85.3566Z" fill="black"/>
<path d="M270.13 3.08502C274.9 3.08502 278.841 7.07267 278.841 11.8998V74.8628C278.841 79.69 274.9 83.6776 270.13 83.6776H10.8704C6.1 83.6776 2.15926 79.69 2.15926 74.8628V11.8998C2.15926 7.07267 6.1 3.08502 10.8704 3.08502H270.13ZM270.13 1.40601H10.8704C5.06296 1.40601 0.5 6.23317 0.5 11.8998V74.8628C0.5 80.7393 5.06296 85.3566 10.8704 85.3566H270.13C275.937 85.3566 280.5 80.7393 280.5 74.8628V11.8998C280.5 6.23317 275.937 1.40601 270.13 1.40601Z" fill="#A6A6A6"/>
<path d="M141.744 47.1591C136.766 47.1591 132.826 50.9369 132.826 56.1838C132.826 61.2208 136.766 65.2085 141.744 65.2085C146.722 65.2085 150.663 61.4307 150.663 56.1838C150.663 50.727 146.722 47.1591 141.744 47.1591ZM141.744 61.4307C139.048 61.4307 136.766 59.1221 136.766 55.9739C136.766 52.8258 139.048 50.5171 141.744 50.5171C144.44 50.5171 146.722 52.6159 146.722 55.9739C146.722 59.1221 144.44 61.4307 141.744 61.4307ZM122.455 47.1591C117.477 47.1591 113.537 50.9369 113.537 56.1838C113.537 61.2208 117.477 65.2085 122.455 65.2085C127.433 65.2085 131.374 61.4307 131.374 56.1838C131.374 50.727 127.433 47.1591 122.455 47.1591ZM122.455 61.4307C119.759 61.4307 117.477 59.1221 117.477 55.9739C117.477 52.8258 119.759 50.5171 122.455 50.5171C125.152 50.5171 127.433 52.6159 127.433 55.9739C127.433 59.1221 125.152 61.4307 122.455 61.4307ZM99.433 49.8875V53.6653H108.352C108.144 55.7641 107.315 57.4431 106.277 58.4925C105.033 59.7517 102.959 61.2208 99.433 61.2208C93.833 61.2208 89.6849 56.8134 89.6849 51.1468C89.6849 45.4801 94.0404 41.0727 99.433 41.0727C102.337 41.0727 104.618 42.332 106.277 43.8011L108.974 41.0727C106.692 38.9739 103.789 37.2949 99.6404 37.2949C92.1738 37.2949 85.7441 43.5912 85.7441 51.1468C85.7441 58.7023 92.1738 64.9986 99.6404 64.9986C103.789 64.9986 106.692 63.7394 109.181 61.011C111.67 58.4924 112.5 54.9245 112.5 52.1962C112.5 51.3566 112.5 50.5171 112.292 49.8875H99.433ZM193.596 52.8258C192.766 50.727 190.692 47.1591 186.129 47.1591C181.566 47.1591 177.833 50.727 177.833 56.1838C177.833 61.2208 181.566 65.2085 186.544 65.2085C190.485 65.2085 192.974 62.69 193.803 61.2208L190.9 59.1221C189.863 60.5912 188.618 61.6406 186.544 61.6406C184.47 61.6406 183.226 60.8011 182.189 58.9122L194.011 53.8752L193.596 52.8258ZM181.566 55.7641C181.566 52.406 184.263 50.5171 186.129 50.5171C187.581 50.5171 189.033 51.3566 189.448 52.406L181.566 55.7641ZM171.818 64.369H175.759V38.1344H171.818V64.369ZM165.596 49.048C164.559 47.9986 162.9 46.9492 160.826 46.9492C156.47 46.9492 152.322 50.9369 152.322 55.9739C152.322 61.011 156.263 64.7887 160.826 64.7887C162.9 64.7887 164.559 63.7394 165.389 62.69H165.596V63.9492C165.596 67.3073 163.729 69.1961 160.826 69.1961C158.544 69.1961 156.885 67.5171 156.47 66.048L153.152 67.5171C154.189 69.8258 156.677 72.7641 161.033 72.7641C165.596 72.7641 169.329 70.0357 169.329 63.5295V47.5789H165.596V49.048ZM161.033 61.4307C158.337 61.4307 156.055 59.1221 156.055 55.9739C156.055 52.8258 158.337 50.5171 161.033 50.5171C163.729 50.5171 165.803 52.8258 165.803 55.9739C165.803 59.1221 163.729 61.4307 161.033 61.4307ZM211.64 38.1344H202.307V64.369H206.248V54.5048H211.64C215.996 54.5048 220.144 51.3566 220.144 46.3196C220.144 41.2826 215.996 38.1344 211.64 38.1344ZM211.848 50.727H206.248V41.7023H211.848C214.752 41.7023 216.411 44.2208 216.411 46.1097C216.203 48.4184 214.544 50.727 211.848 50.727ZM235.7 46.9492C232.796 46.9492 229.892 48.2085 228.855 50.9369L232.381 52.406C233.211 50.9369 234.455 50.5171 235.907 50.5171C237.981 50.5171 239.848 51.7764 240.055 53.8752V54.085C239.433 53.6653 237.774 53.0357 236.115 53.0357C232.381 53.0357 228.648 55.1344 228.648 58.9122C228.648 62.4801 231.759 64.7887 235.077 64.7887C237.774 64.7887 239.018 63.5295 240.055 62.2702H240.263V64.369H243.996V54.2949C243.581 49.6776 240.055 46.9492 235.7 46.9492ZM235.285 61.4307C234.04 61.4307 232.174 60.8011 232.174 59.1221C232.174 57.0233 234.455 56.3937 236.322 56.3937C237.981 56.3937 238.811 56.8134 239.848 57.2332C239.433 59.7517 237.359 61.4307 235.285 61.4307ZM257.063 47.5789L252.707 58.9122H252.5L247.937 47.5789H243.789L250.633 63.5295L246.692 72.3443H250.633L261.211 47.5789H257.063ZM222.218 64.369H226.159V38.1344H222.218V64.369Z" fill="white"/>
<path d="M22.0705 17.1467C21.4483 17.7764 21.2409 18.8257 21.2409 20.085V66.4677C21.2409 67.727 21.6557 68.7764 22.2779 69.406L22.4854 69.6159L48.2039 43.5912V43.1714L22.0705 17.1467Z" fill="url(#paint0_linear_2953_16728)"/>
<path d="M56.4998 52.4059L47.9961 43.801V43.1713L56.4998 34.5664L56.7072 34.7763L66.8702 40.6528C69.7739 42.3318 69.7739 45.0602 66.8702 46.7392L56.4998 52.4059Z" fill="url(#paint1_linear_2953_16728)"/>
<path d="M56.7072 52.1962L47.9961 43.3813L22.0701 69.6159C23.1072 70.6653 24.559 70.6653 26.4257 69.8258L56.7072 52.1962Z" fill="url(#paint2_linear_2953_16728)"/>
<path d="M56.7072 34.5665L26.4257 17.1467C24.559 16.0973 23.1072 16.3072 22.0701 17.3566L47.9961 43.3813L56.7072 34.5665Z" fill="url(#paint3_linear_2953_16728)"/>
<path opacity="0.2" d="M56.4998 51.9863L26.4257 69.1962C24.7664 70.2456 23.3146 70.0357 22.2775 69.1962L22.0701 69.4061L22.2775 69.616C23.3146 70.4555 24.7664 70.6653 26.4257 69.616L56.4998 51.9863Z" fill="black"/>
<path opacity="0.12" d="M22.0705 69.1962C21.4483 68.5665 21.2409 67.5171 21.2409 66.2579V66.4678C21.2409 67.727 21.6557 68.7764 22.2779 69.406V69.1962H22.0705ZM66.8705 46.1097L56.5002 51.9863L56.7076 52.1962L66.8705 46.3196C68.3224 45.4801 68.9446 44.4307 68.9446 43.3813C68.9446 44.4307 68.115 45.2702 66.8705 46.1097Z" fill="black"/>
<path opacity="0.25" d="M26.4261 17.3566L66.8705 40.6529C68.115 41.4924 68.9446 42.3319 68.9446 43.3813C68.9446 42.3319 68.3224 41.2825 66.8705 40.443L26.4261 17.1467C23.5224 15.4677 21.2409 16.727 21.2409 20.085V20.2949C21.2409 17.1467 23.5224 15.6776 26.4261 17.3566Z" fill="white"/>
<path d="M96.3224 27.0109C95.078 28.2702 93.6261 28.8998 91.7595 28.8998C89.8928 28.8998 88.4409 28.2702 87.1965 27.0109C85.9521 25.7516 85.3298 24.2825 85.3298 22.3936C85.3298 20.5047 85.9521 19.0356 87.1965 17.7763C88.4409 16.5171 89.8928 15.8875 91.7595 15.8875C93.6261 15.8875 95.078 16.5171 96.3224 17.7763C97.5669 19.0356 98.1891 20.5047 98.1891 22.3936C98.1891 24.2825 97.5669 25.7516 96.3224 27.0109ZM88.4409 25.9615C89.2706 26.801 90.515 27.4307 91.7595 27.4307C93.0039 27.4307 94.2483 27.0109 95.078 25.9615C95.9076 25.122 96.5298 23.8628 96.5298 22.3936C96.5298 20.9245 96.115 19.6652 95.078 18.8257C94.2483 17.9862 93.0039 17.3566 91.7595 17.3566C90.515 17.3566 89.2706 17.7763 88.4409 18.8257C87.6113 19.6652 86.9891 20.9245 86.9891 22.3936C86.9891 23.8628 87.4039 25.122 88.4409 25.9615ZM100.471 28.6899V16.0973H102.337L108.352 25.9615V16.0973H110.011V28.6899H108.352L102.13 18.406V28.6899H100.471ZM117.063 28.6899H115.404V17.5665H111.878V16.0973H120.382V17.5665H116.856V28.6899H117.063ZM122.663 28.6899V16.0973H126.396C128.263 16.0973 129.922 16.727 130.959 17.7763C132.204 19.0356 132.619 20.5047 132.619 22.3936C132.619 24.2825 131.996 25.7516 130.959 27.0109C129.715 28.2702 128.263 28.6899 126.396 28.6899H122.663ZM124.115 27.2208H126.396C127.848 27.2208 128.885 26.801 129.715 25.9615C130.545 25.122 130.959 23.8628 130.959 22.3936C130.959 20.9245 130.545 19.6652 129.715 18.8257C128.885 17.9862 127.641 17.5665 126.396 17.5665H124.115V27.2208ZM142.159 17.5665H136.559V21.5541H141.745V23.0233H136.559V27.0109H142.159V28.6899H134.9V16.0973H142.159V17.5665ZM153.982 16.0973L149.419 21.5541L154.396 28.6899H152.53L148.382 22.8134L146.515 25.122V28.6899H144.856V16.0973H146.515V22.6035L151.908 16.0973H153.982ZM159.996 28.6899V16.0973H161.656V21.5541H167.878V16.0973H169.537V28.6899H167.878V23.0233H161.656V28.6899H159.996ZM179.7 17.5665H174.1V21.5541H179.285V23.0233H174.1V27.0109H179.7V28.6899H172.441V16.0973H179.7V17.5665ZM186.337 28.6899H184.678V17.5665H181.152V16.0973H189.656V17.5665H186.13V28.6899H186.337ZM206.041 27.0109C204.796 28.2702 203.345 28.8998 201.478 28.8998C199.611 28.8998 198.159 28.2702 196.915 27.0109C195.671 25.7516 195.048 24.2825 195.048 22.3936C195.048 20.5047 195.671 19.0356 196.915 17.7763C198.159 16.5171 199.611 15.8875 201.478 15.8875C203.345 15.8875 204.796 16.5171 206.041 17.7763C207.285 19.0356 207.908 20.5047 207.908 22.3936C207.908 24.2825 207.285 25.7516 206.041 27.0109ZM198.159 25.9615C198.989 26.801 200.234 27.4307 201.478 27.4307C202.722 27.4307 203.967 27.0109 204.796 25.9615C205.626 25.122 206.248 23.8628 206.248 22.3936C206.248 20.9245 205.834 19.6652 204.796 18.8257C203.967 17.9862 202.722 17.3566 201.478 17.3566C200.234 17.3566 198.989 17.7763 198.159 18.8257C197.33 19.6652 196.708 20.9245 196.708 22.3936C196.708 23.8628 197.122 25.122 198.159 25.9615ZM211.641 28.6899H209.982V16.0973H214.13C215.167 16.0973 215.997 16.5171 216.826 17.1467C217.656 17.7763 218.071 18.8257 218.071 19.8751C218.071 20.9245 217.656 21.764 216.826 22.6035C215.997 23.2331 215.167 23.6529 214.13 23.6529H211.434V28.6899H211.641ZM211.641 21.9739H214.337C214.959 21.9739 215.582 21.764 215.996 21.3442C216.411 20.9245 216.619 20.2949 216.619 19.8751C216.619 19.4554 216.411 18.8257 215.996 18.406C215.582 17.9862 214.959 17.7763 214.337 17.7763H211.641V21.9739Z" fill="white" stroke="white" stroke-width="0.940428" stroke-miterlimit="10"/>
</g>
<defs>
<linearGradient id="paint0_linear_2953_16728" x1="45.715" y1="19.6862" x2="10.4939" y2="54.4909" gradientUnits="userSpaceOnUse">
<stop stop-color="#00A0FF"/>
<stop offset="0.007" stop-color="#00A1FF"/>
<stop offset="0.26" stop-color="#00BEFF"/>
<stop offset="0.512" stop-color="#00D2FF"/>
<stop offset="0.76" stop-color="#00DFFF"/>
<stop offset="1" stop-color="#00E3FF"/>
</linearGradient>
<linearGradient id="paint1_linear_2953_16728" x1="70.674" y1="43.3833" x2="20.4876" y2="43.3833" gradientUnits="userSpaceOnUse">
<stop stop-color="#FFE000"/>
<stop offset="0.409" stop-color="#FFBD00"/>
<stop offset="0.775" stop-color="#FFA500"/>
<stop offset="1" stop-color="#FF9C00"/>
</linearGradient>
<linearGradient id="paint2_linear_2953_16728" x1="51.9928" y1="48.2001" x2="4.23244" y2="95.3986" gradientUnits="userSpaceOnUse">
<stop stop-color="#FF3A44"/>
<stop offset="1" stop-color="#C31162"/>
</linearGradient>
<linearGradient id="paint3_linear_2953_16728" x1="15.6343" y1="1.77535" x2="36.9625" y2="22.8527" gradientUnits="userSpaceOnUse">
<stop stop-color="#32A071"/>
<stop offset="0.069" stop-color="#2DA771"/>
<stop offset="0.476" stop-color="#15CF74"/>
<stop offset="0.801" stop-color="#06E775"/>
<stop offset="1" stop-color="#00F076"/>
</linearGradient>
<clipPath id="clip0_2953_16728">
<rect width="280" height="85" fill="white" transform="translate(0.5 0.881348)"/>
</clipPath>
</defs>
</svg>