<svg width="17" height="17" viewBox="0 0 17 17" fill="none" xmlns="http://www.w3.org/2000/svg">
                <g clip-path="url(#clip0_835_1944)">
                  <path d="M8.05542 7.95239V5.28573H9.38875V7.95239H12.0554V9.28573H9.38875V11.9524H8.05542V9.28573H5.38875V7.95239H8.05542ZM8.72209 15.2857C5.04009 15.2857 2.05542 12.3011 2.05542 8.61906C2.05542 4.93706 5.04009 1.95239 8.72209 1.95239C12.4041 1.95239 15.3888 4.93706 15.3888 8.61906C15.3888 12.3011 12.4041 15.2857 8.72209 15.2857ZM8.72209 13.9524C10.1366 13.9524 11.4931 13.3905 12.4933 12.3903C13.4935 11.3901 14.0554 10.0335 14.0554 8.61906C14.0554 7.20457 13.4935 5.84802 12.4933 4.84782C11.4931 3.84763 10.1366 3.28573 8.72209 3.28573C7.3076 3.28573 5.95104 3.84763 4.95085 4.84782C3.95066 5.84802 3.38875 7.20457 3.38875 8.61906C3.38875 10.0335 3.95066 11.3901 4.95085 12.3903C5.95104 13.3905 7.3076 13.9524 8.72209 13.9524Z" fill="#F45859"/>
                </g>
                <defs>
                  <clipPath id="clip0_835_1944">
                    <rect width="16" height="16" fill="white" transform="translate(0.722046 0.619141)"/>
                  </clipPath>
                </defs>
              </svg>