<svg width="23" height="21" viewBox="0 0 23 21" fill="none" xmlns="http://www.w3.org/2000/svg">
        <g clip-path="url(#clip0_2873_10549)">
          <path d="M18.8188 20.897V19.5259C18.8188 19.0003 19.0949 18.6575 19.5683 18.6575C19.805 18.6575 20.0614 18.7489 20.2389 19.046C20.3769 18.7946 20.5742 18.6575 20.87 18.6575C21.0672 18.6575 21.2645 18.7261 21.4222 18.9774V18.7032H21.8364V20.897H21.4222V19.6859C21.4222 19.2974 21.2447 19.1146 20.9686 19.1146C20.6925 19.1146 20.5544 19.3202 20.5544 19.6859V20.897H20.1403V19.6859C20.1403 19.2974 19.943 19.1146 19.6866 19.1146C19.4105 19.1146 19.2724 19.3202 19.2724 19.6859V20.897H18.8188ZM12.685 18.7032H13.3556V18.0405H13.7697V18.7032H14.1445V19.1374H13.7697V20.1429C13.7697 20.6457 13.5922 20.9427 13.1189 20.9427C12.9414 20.9427 12.7442 20.8742 12.6061 20.7828L12.7244 20.3714C12.8428 20.4628 12.9808 20.4857 13.0794 20.4857C13.2767 20.4857 13.3556 20.3486 13.3556 20.1201V19.1374H12.685V18.7032ZM9.17431 18.6575C9.41098 18.6575 9.56877 18.7946 9.66738 18.9774V18.7032H10.0816V20.897H9.66738V19.663C9.66738 19.2974 9.52932 19.0917 9.27292 19.0917C9.19403 19.0917 9.09542 19.1146 9.01652 19.1374L8.89819 18.6804C8.97708 18.6575 9.09542 18.6575 9.17431 18.6575ZM14.4798 18.886C14.677 18.7261 14.9531 18.6575 15.249 18.6575C15.7223 18.6575 16.0379 18.9317 16.0379 19.3659C16.0379 19.7316 15.8012 19.9372 15.387 20.0058L15.1898 20.0286C14.9728 20.0743 14.8545 20.1429 14.8545 20.2572C14.8545 20.4171 15.0123 20.5314 15.2884 20.5314C15.5645 20.5314 15.7815 20.4171 15.9195 20.3029L16.1168 20.6685C15.8998 20.8513 15.604 20.9427 15.3081 20.9427C14.7559 20.9427 14.4403 20.6457 14.4403 20.2343C14.4403 19.8458 14.6967 19.6402 15.0912 19.5716L15.2884 19.5488C15.4659 19.5259 15.604 19.4802 15.604 19.3431C15.604 19.1831 15.4659 19.0917 15.249 19.0917C15.0123 19.0917 14.7756 19.206 14.6573 19.2745L14.4798 18.886ZM3.47438 18.6575C3.71106 18.6575 3.86884 18.7946 3.96745 18.9774V18.7032H4.38164V20.897H3.96745V19.663C3.96745 19.2974 3.8294 19.0917 3.573 19.0917C3.4941 19.0917 3.39549 19.1146 3.3166 19.1374L3.19826 18.6804C3.27715 18.6575 3.39549 18.6575 3.47438 18.6575ZM8.76013 19.8001C8.76013 20.4628 8.36567 20.9427 7.75426 20.9427C7.47814 20.9427 7.28091 20.8742 7.08368 20.6914L7.28091 20.3029C7.43869 20.44 7.59647 20.5085 7.77398 20.5085C8.10927 20.5085 8.34594 20.2343 8.34594 19.8001C8.34594 19.3888 8.10927 19.1146 7.77398 19.0917C7.59647 19.0917 7.43869 19.1603 7.28091 19.2974L7.08368 18.9089C7.28091 18.7261 7.47814 18.6575 7.75426 18.6575C8.36567 18.6575 8.76013 19.1374 8.76013 19.8001ZM4.93388 19.8001V18.7032H5.34806V18.9774C5.48612 18.7718 5.68335 18.6575 5.93975 18.6575C6.47227 18.6575 6.88645 19.1374 6.88645 19.8001C6.88645 20.4628 6.47227 20.9427 5.93975 20.9427C5.66363 20.9427 5.4664 20.8285 5.34806 20.6228V20.897H4.93388V19.8001ZM6.45254 19.8001C6.45254 19.4116 6.23559 19.0917 5.88058 19.0917C5.54529 19.0917 5.30861 19.3888 5.30861 19.8001C5.30861 20.1886 5.54529 20.5085 5.88058 20.5085C6.23559 20.4857 6.45254 20.1886 6.45254 19.8001ZM11.403 18.6575C11.9552 18.6575 12.3497 19.1146 12.3497 19.8001C12.3497 20.4857 11.9552 20.9427 11.3833 20.9427C11.1072 20.9427 10.831 20.8513 10.6141 20.6457L10.8113 20.3029C10.9691 20.44 11.1663 20.5314 11.3636 20.5314C11.62 20.5314 11.8763 20.3943 11.9355 20.0058H10.5352V19.823C10.5155 19.1146 10.8705 18.6575 11.403 18.6575ZM11.403 19.0689C11.1466 19.0689 10.9691 19.2517 10.9296 19.5945H11.9158C11.8763 19.2974 11.6988 19.0689 11.403 19.0689ZM1.12735 19.8001V17.8348H1.54153V18.9774C1.6796 18.7718 1.87683 18.6575 2.13322 18.6575C2.66574 18.6575 3.07992 19.1374 3.07992 19.8001C3.07992 20.4628 2.66574 20.9427 2.13322 20.9427C1.8571 20.9427 1.65987 20.8285 1.54153 20.6228V20.897H1.12735V19.8001ZM2.64602 19.8001C2.64602 19.4116 2.42907 19.0917 2.07405 19.0917C1.73876 19.0917 1.50209 19.3888 1.50209 19.8001C1.50209 20.1886 1.73876 20.5085 2.07405 20.5085C2.42907 20.4857 2.64602 20.1886 2.64602 19.8001ZM16.4915 19.8001V18.7032H16.9057V18.9774C17.0438 18.7718 17.241 18.6575 17.4974 18.6575C18.0299 18.6575 18.4441 19.1374 18.4441 19.8001C18.4441 20.4628 18.0299 20.9427 17.4974 20.9427C17.2213 20.9427 17.024 20.8285 16.9057 20.6228V20.897H16.4915V19.8001ZM18.0299 19.8001C18.0299 19.4116 17.8129 19.0917 17.4579 19.0917C17.1226 19.0917 16.886 19.3888 16.886 19.8001C16.886 20.1886 17.1226 20.5085 17.4579 20.5085C17.8129 20.4857 18.0299 20.1886 18.0299 19.8001Z" fill="black"/>
          <path d="M8.40495 2.04395H14.6177V14.9783H8.40495V2.04395Z" fill="#FF5F00"/>
          <path d="M14.2233 8.5112C14.2233 5.8832 13.1583 3.55228 11.5213 2.04404C12.7244 0.947136 14.243 0.284424 15.8997 0.284424C19.8246 0.284424 23 3.96362 23 8.5112C23 13.0588 19.8246 16.738 15.8997 16.738C14.243 16.738 12.7244 16.0753 11.5213 14.9784C13.1583 13.493 14.2233 11.1392 14.2233 8.5112Z" fill="#EB001B"/>
          <path d="M0.0227213 8.5112C0.0227213 13.0588 3.19811 16.738 7.12297 16.738C8.7797 16.738 10.2984 16.0753 11.5015 14.9784C9.84474 13.4701 8.79942 11.1392 8.79942 8.5112C8.79942 5.8832 9.86446 3.55228 11.5015 2.04404C10.2984 0.947136 8.7797 0.284424 7.12297 0.284424C3.19811 0.284424 0.0227213 3.98647 0.0227213 8.5112Z" fill="#F79E1B"/>
        </g>
        <defs>
          <clipPath id="clip0_2873_10549">
            <rect width="23" height="20.7156" fill="white" transform="matrix(-1 0 0 1 23 0.284424)"/>
          </clipPath>
        </defs>
      </svg>