<svg width="18" height="16" viewBox="0 0 18 16" fill="none" xmlns="http://www.w3.org/2000/svg">
                  <path d="M6.02734 5.27368C4.39648 5.99634 3.09766 7.29321 2.37305 8.92407C2.26367 9.17017 2.375 9.45728 2.62109 9.56665C2.68555 9.59595 2.75195 9.60962 2.81836 9.60962C3.00586 9.60962 3.18359 9.5022 3.26367 9.32056C3.89062 7.9104 5.01172 6.78931 6.42188 6.16431C6.66797 6.05493 6.7793 5.76782 6.66992 5.52173C6.5625 5.27563 6.27344 5.16431 6.02734 5.27368ZM10.2188 3.15454C10.3594 2.92407 10.4453 2.65649 10.4453 2.36743C10.4453 1.53149 9.76758 0.855713 8.93359 0.855713C8.09766 0.855713 7.42188 1.53345 7.42188 2.36743C7.42188 2.65649 7.50781 2.92603 7.64844 3.15454C3.41602 3.77759 0.158203 7.43188 0.158203 11.8342V12.8909C0.158203 13.1604 0.376953 13.3792 0.646484 13.3792H17.2227C17.4922 13.3792 17.7109 13.1604 17.7109 12.8909V11.8342C17.709 7.43188 14.4492 3.77954 10.2188 3.15454ZM16.7344 12.4026H1.13281V11.8342C1.13281 7.53345 4.63281 4.0354 8.93359 4.0354C13.2344 4.0354 16.7344 7.53345 16.7344 11.8342V12.4026ZM17.2207 14.3596H0.644531C0.375 14.3596 0.15625 14.5784 0.15625 14.8479C0.15625 15.1174 0.375 15.3362 0.644531 15.3362H17.2207C17.4902 15.3362 17.709 15.1174 17.709 14.8479C17.709 14.5784 17.4902 14.3596 17.2207 14.3596Z" fill="#818181"/>
                </svg>