<svg width="16" height="16" viewBox="0 0 16 16" fill="none" xmlns="http://www.w3.org/2000/svg" class="w-[20px] h-[20px] mx-1">
        <g clip-path="url(#clip0_1106_4186)">
          <path d="M1.33337 2.66667C1.33337 2.48986 1.40361 2.32029 1.52864 2.19526C1.65366 2.07024 1.82323 2 2.00004 2H14C14.1769 2 14.3464 2.07024 14.4714 2.19526C14.5965 2.32029 14.6667 2.48986 14.6667 2.66667V6.33333C14.2247 6.33333 13.8008 6.50893 13.4882 6.82149C13.1756 7.13405 13 7.55797 13 8C13 8.44203 13.1756 8.86595 13.4882 9.17851C13.8008 9.49107 14.2247 9.66667 14.6667 9.66667V13.3333C14.6667 13.5101 14.5965 13.6797 14.4714 13.8047C14.3464 13.9298 14.1769 14 14 14H2.00004C1.82323 14 1.65366 13.9298 1.52864 13.8047C1.40361 13.6797 1.33337 13.5101 1.33337 13.3333V2.66667ZM5.39004 12.6667C5.45875 12.4713 5.58641 12.3022 5.75538 12.1825C5.92435 12.0628 6.12631 11.9985 6.33337 11.9985C6.54044 11.9985 6.74239 12.0628 6.91137 12.1825C7.08034 12.3022 7.20799 12.4713 7.27671 12.6667H13.3334V10.688C12.8326 10.4398 12.4111 10.0566 12.1164 9.58169C11.8217 9.10676 11.6655 8.55894 11.6655 8C11.6655 7.44107 11.8217 6.89324 12.1164 6.41831C12.4111 5.94337 12.8326 5.5602 13.3334 5.312V3.33333H7.27671C7.20799 3.52866 7.08034 3.69785 6.91137 3.81753C6.74239 3.93721 6.54044 4.00149 6.33337 4.00149C6.12631 4.00149 5.92435 3.93721 5.75538 3.81753C5.58641 3.69785 5.45875 3.52866 5.39004 3.33333H2.66671V12.6667H5.39004ZM6.33337 7.33333C6.06816 7.33333 5.8138 7.22798 5.62627 7.04044C5.43873 6.8529 5.33337 6.59855 5.33337 6.33333C5.33337 6.06812 5.43873 5.81376 5.62627 5.62623C5.8138 5.43869 6.06816 5.33333 6.33337 5.33333C6.59859 5.33333 6.85294 5.43869 7.04048 5.62623C7.22802 5.81376 7.33337 6.06812 7.33337 6.33333C7.33337 6.59855 7.22802 6.8529 7.04048 7.04044C6.85294 7.22798 6.59859 7.33333 6.33337 7.33333ZM6.33337 10.6667C6.06816 10.6667 5.8138 10.5613 5.62627 10.3738C5.43873 10.1862 5.33337 9.93188 5.33337 9.66667C5.33337 9.40145 5.43873 9.1471 5.62627 8.95956C5.8138 8.77202 6.06816 8.66667 6.33337 8.66667C6.59859 8.66667 6.85294 8.77202 7.04048 8.95956C7.22802 9.1471 7.33337 9.40145 7.33337 9.66667C7.33337 9.93188 7.22802 10.1862 7.04048 10.3738C6.85294 10.5613 6.59859 10.6667 6.33337 10.6667Z" fill="#818181"/>
        </g>
        <defs>
          <clipPath id="clip0_1106_4186">
            <rect width="16" height="16" fill="white"/>
          </clipPath>
        </defs>
      </svg>