<svg width="33" height="21" viewBox="0 0 33 21" fill="none" xmlns="http://www.w3.org/2000/svg">
        <path d="M31.0021 0.449829C31.868 0.449829 32.5725 1.15427 32.5725 2.0202V18.139C32.5725 19.0048 31.868 19.7093 31.0021 19.7093H2.76886C1.90299 19.7093 1.19849 19.0049 1.19849 18.139V2.0202C1.19849 1.15433 1.90292 0.449829 2.76886 0.449829H31.0021ZM31.0021 0.137329H2.76886C1.72899 0.137329 0.885986 0.98033 0.885986 2.0202V18.139C0.885986 19.1789 1.72899 20.0218 2.76886 20.0218H31.0021C32.042 20.0218 32.885 19.1789 32.885 18.139V2.0202C32.885 0.98033 32.042 0.137329 31.0021 0.137329Z" fill="#005098"/>
        <path d="M12.762 14.069L14.115 6.12634H16.2808L14.9253 14.069H12.762Z" fill="#005098"/>
        <path d="M22.7782 6.32197C22.3494 6.16091 21.6771 5.98828 20.8376 5.98828C18.6985 5.98828 17.1916 7.06541 17.1783 8.60953C17.1662 9.75053 18.2539 10.3877 19.0752 10.7675C19.9183 11.1569 20.2017 11.4052 20.1981 11.7529C20.192 12.2853 19.5247 12.5281 18.902 12.5281C18.036 12.5281 17.5757 12.4082 16.8646 12.1114L16.586 11.9854L16.282 13.7637C16.7871 13.9853 17.7222 14.1773 18.6937 14.1869C20.9697 14.1869 22.4463 13.1222 22.4632 11.473C22.4717 10.57 21.8952 9.88259 20.6463 9.31534C19.8892 8.94772 19.4254 8.70272 19.4302 8.33053C19.4302 8.00047 19.8226 7.64741 20.6705 7.64741C21.3779 7.63622 21.8915 7.79066 22.29 7.95172L22.4851 8.04347L22.7782 6.32197Z" fill="#005098"/>
        <path d="M28.3296 6.13391H26.6567C26.1383 6.13391 25.7507 6.27529 25.523 6.79254L22.3081 14.0719H24.5817C24.5817 14.0719 24.9524 13.0932 25.0372 12.8782C25.2855 12.8782 27.4937 12.8818 27.8099 12.8818C27.874 13.1598 28.0727 14.0719 28.0727 14.0719H30.0822L28.3296 6.13391ZM25.6599 11.2538C25.8391 10.7959 26.5224 9.03316 26.5224 9.03316C26.5102 9.05435 26.7004 8.57316 26.8094 8.27491L26.956 8.95985C26.956 8.95985 27.3703 10.8559 27.4574 11.2538H25.6599Z" fill="#005098"/>
        <path d="M10.9461 6.13208L8.82631 11.5488L8.59981 10.4483C8.20612 9.17883 6.97662 7.80402 5.60181 7.11602L7.53987 14.0628L9.83043 14.0598L13.2391 6.13208H10.9461Z" fill="#005098"/>
        <path d="M6.86037 6.12732H3.36818L3.34155 6.29238C6.0573 6.95007 7.85487 8.53901 8.59987 10.4484L7.84155 6.79776C7.71074 6.29476 7.33037 6.14488 6.86037 6.12732Z" fill="#F6A500"/>
      </svg>